<svg width="1920" height="600" viewBox="0 0 1920 600" fill="none" xmlns="http://www.w3.org/2000/svg">
  <!-- Deep black background with subtle gradient -->
  <rect width="1920" height="600" fill="url(#bgGradient)"/>

  <!-- Radial gradient for lighting effect -->
  <defs>
    <linearGradient id="bgGradient" x1="0" y1="0" x2="1920" y2="600" gradientUnits="userSpaceOnUse">
      <stop offset="0%" stop-color="#000000"/>
      <stop offset="50%" stop-color="#0a0a0a"/>
      <stop offset="100%" stop-color="#141414"/>
    </linearGradient>

    <radialGradient id="goldGlow" cx="50%" cy="50%" r="50%">
      <stop offset="0%" stop-color="#d4af37" stop-opacity="0.3"/>
      <stop offset="50%" stop-color="#d4af37" stop-opacity="0.15"/>
      <stop offset="100%" stop-color="#d4af37" stop-opacity="0"/>
    </radialGradient>

    <linearGradient id="goldGradient" x1="0%" y1="0%" x2="100%" y2="0%">
      <stop offset="0%" stop-color="#b8932f"/>
      <stop offset="50%" stop-color="#d4af37"/>
      <stop offset="100%" stop-color="#f4e5b8"/>
    </linearGradient>

    <filter id="glow">
      <feGaussianBlur stdDeviation="4" result="coloredBlur"/>
      <feMerge>
        <feMergeNode in="coloredBlur"/>
        <feMergeNode in="SourceGraphic"/>
      </feMerge>
    </filter>
  </defs>

  <!-- Golden glow effect in center -->
  <circle cx="960" cy="300" r="400" fill="url(#goldGlow)"/>

  <!-- Studio monitor speaker silhouette -->
  <g opacity="0.6">
    <!-- Main speaker body -->
    <rect x="720" y="150" width="480" height="300" rx="8" fill="#1a1a1a" stroke="url(#goldGradient)" stroke-width="2"/>

    <!-- Woofer (large speaker) -->
    <circle cx="960" cy="300" r="100" fill="#0a0a0a" stroke="#d4af37" stroke-width="3"/>
    <circle cx="960" cy="300" r="80" fill="#141414" stroke="#d4af37" stroke-width="1" opacity="0.8"/>
    <circle cx="960" cy="300" r="50" fill="#0a0a0a"/>

    <!-- Tweeter (small speaker) -->
    <circle cx="960" cy="160" r="30" fill="#0a0a0a" stroke="#d4af37" stroke-width="2"/>
    <circle cx="960" cy="160" r="20" fill="#d4af37" opacity="0.3"/>

    <!-- Bass port -->
    <rect x="900" y="400" width="120" height="30" rx="15" fill="#0a0a0a" stroke="#d4af37" stroke-width="1" opacity="0.5"/>
  </g>

  <!-- Sound waves (abstract) -->
  <g opacity="0.3" filter="url(#glow)">
    <path d="M 1100 300 Q 1150 250, 1200 300" stroke="#d4af37" stroke-width="2" fill="none"/>
    <path d="M 1120 300 Q 1170 270, 1220 300" stroke="#d4af37" stroke-width="2" fill="none"/>
    <path d="M 1140 300 Q 1190 280, 1240 300" stroke="#d4af37" stroke-width="2" fill="none"/>

    <path d="M 820 300 Q 770 250, 720 300" stroke="#d4af37" stroke-width="2" fill="none"/>
    <path d="M 800 300 Q 750 270, 700 300" stroke="#d4af37" stroke-width="2" fill="none"/>
    <path d="M 780 300 Q 730 280, 680 300" stroke="#d4af37" stroke-width="2" fill="none"/>
  </g>

  <!-- Floating particles -->
  <g opacity="0.4">
    <circle cx="400" cy="150" r="3" fill="#d4af37"/>
    <circle cx="1500" cy="200" r="2" fill="#d4af37"/>
    <circle cx="350" cy="400" r="2.5" fill="#d4af37"/>
    <circle cx="1550" cy="380" r="3" fill="#d4af37"/>
    <circle cx="600" cy="100" r="2" fill="#f4e5b8"/>
    <circle cx="1320" cy="120" r="2" fill="#f4e5b8"/>
    <circle cx="450" cy="500" r="2.5" fill="#f4e5b8"/>
    <circle cx="1470" cy="480" r="2" fill="#f4e5b8"/>
  </g>

  <!-- Subtle grid pattern overlay -->
  <g opacity="0.03">
    <defs>
      <pattern id="grid" width="40" height="40" patternUnits="userSpaceOnUse">
        <path d="M 40 0 L 0 0 0 40" fill="none" stroke="#d4af37" stroke-width="0.5"/>
      </pattern>
    </defs>
    <rect width="1920" height="600" fill="url(#grid)"/>
  </g>

  <!-- Vignette effect -->
  <defs>
    <radialGradient id="vignette" cx="50%" cy="50%" r="70%">
      <stop offset="40%" stop-color="#000000" stop-opacity="0"/>
      <stop offset="100%" stop-color="#000000" stop-opacity="0.6"/>
    </radialGradient>
  </defs>
  <rect width="1920" height="600" fill="url(#vignette)"/>
</svg>
